# xmcd CD database file
#
# Track frame offsets:
#	150
#	12932
#	25955
#	38775
#	48260
#	60510
#	71785
#	84250
#	97930
#	105860
#	113912
#	124022
#	132090
#	142860
#
# Disc length: 2036 seconds
#
# Revision: 0
# Processed by: cddbd v1.4PL0 Copyright (c) Steve Scherf et al.
# Submitted via: CDex 1.50Beta6
#
DISCID=a807f20e
DTITLE=Eydie Gorme - Blame It On The Bossa Nova
DYEAR=2002
DGENRE=Jazz
TTITLE0=One Note Samba
TTITLE1=Melodle D'Amour
TTITLE2=The Glft
TTITLE3=The Sweetest Sounds
TTITLE4=Dansero
TTITLE5=Blame It On The Bossa Nova
TTITLE6=Desafinado
TTITLE7=The Message
TTITLE8=Almost Like Being In Love 
TTITLE9=Moon River
TTITLE10=The Coffee Song
TTITLE11=I Remember You
TTITLE12=Sweet Talk
TTITLE13=Oba Oba
EXTD=YEAR: 2002
EXTT0=
EXTT1=
EXTT2=
EXTT3=
EXTT4=
EXTT5=
EXTT6=
EXTT7=
EXTT8=
EXTT9=
EXTT10=
EXTT11=
EXTT12=
EXTT13=
PLAYORDER=
